<svg xmlns="http://www.w3.org/2000/svg" width="554" height="128" fill="none" viewBox="0 0 554 128"><path stroke="#00151d" d="M26.228 17.9v37.504h36.888V17.9h18.408v90.6H63.116V71.252H26.228V108.5H7.82V17.9zm266.015 0v90.6h-18.408V17.9zm80.303 0v14.491l-.101.134-45.541 60.383h45.642V108.5H304.73V94.008l.101-.133 45.541-60.383H306.01V17.9zm115.91 0 .148.226 39.274 59.79V17.9h17.768v90.6H529.26l-.148-.225-39.274-59.668V108.5H472.07V17.9zm-88.883 22.083v46.434l6.235 6.235h27.234l6.235-6.235V39.983l-6.235-6.235h-27.234zm-285.25 0v46.434l6.235 6.235h27.234l6.235-6.235V39.983l-6.235-6.235h-27.234zm90.905 18.877h30.141l4.187-4.187V37.679l-4.187-4.187h-30.141zm-32.793 34.627L157.423 108.5h-46.496l-.145-.147-14.72-14.72-.147-.146V32.913l.146-.147 14.721-14.72.145-.146h46.496l15.012 15.013zm285.25 0L442.673 108.5h-46.496l-.145-.147-14.721-14.72-.146-.146V32.913l.146-.147 14.721-14.72.145-.146h46.496l15.012 15.013zM257.708 59.565l-.144.146-8.372 8.494 8.898 9.762.13.143v30.39h-18.408V82.463l-7.404-8.267h-27.18V108.5H186.82V17.9h56.9l.147.149 13.696 13.823.145.146z" opacity=".1"/></svg>