<svg xmlns="http://www.w3.org/2000/svg" width="17" height="16" fill="none" viewBox="0 0 17 16"><path fill="#fcefe8" d="M15.87 5.363c.813.125 1.125 1.125.532 1.72L13.12 10.3l.782 4.531c.125.813-.75 1.438-1.47 1.063L8.37 13.738l-4.093 2.157c-.72.375-1.594-.25-1.47-1.063l.782-4.531L.308 7.082c-.594-.594-.281-1.594.531-1.719l4.594-.656L7.464.551c.375-.75 1.438-.719 1.781 0l2.063 4.156zM11.495 9.77l3.157-3.063-4.344-.625L8.37 2.145 6.402 6.082l-4.344.625L5.214 9.77l-.75 4.312 3.906-2.031 3.875 2.031z"/></svg>