<svg xmlns="http://www.w3.org/2000/svg" width="20" height="20" fill="none" viewBox="0 0 20 20"><path fill="#fcefe8" d="M16.21 6.133H3.79a.34.34 0 0 1-.353-.352v-.937c0-.176.147-.352.352-.352h12.422c.176 0 .352.176.352.352v.937a.356.356 0 0 1-.352.352m0 4.687H3.79a.34.34 0 0 1-.353-.351V9.53c0-.176.147-.351.352-.351h12.422c.176 0 .352.175.352.351v.938a.356.356 0 0 1-.352.351m0 4.688H3.79a.34.34 0 0 1-.353-.352v-.937c0-.176.147-.352.352-.352h12.422c.176 0 .352.176.352.352v.937a.356.356 0 0 1-.352.352"/></svg>