<svg xmlns="http://www.w3.org/2000/svg" width="192" height="31" fill="none" viewBox="0 0 192 31"><path fill="#d1ff66" d="M1.56 7.2h10.752l2.88 2.88v11.04L12.312 24H1.56zm9.144 14.016 1.224-1.224v-8.784l-1.224-1.224h-5.88v11.232zM18.084 7.2h12.144v2.76h-8.88v4.248h8.184v2.712h-8.184v4.32h8.88V24H18.084zM31.318 7.2h3.36l4.176 12.912h.048L43.078 7.2h3.36L40.462 24h-3.168zM48.248 7.2h3.264v7.032h7.104V7.2h3.264V24h-3.264v-6.984h-7.104V24h-3.264zM64.765 21.24V9.96l2.76-2.76h8.64l2.76 2.76v11.28L76.165 24h-8.64zm9.672-.024 1.224-1.224v-8.784l-1.224-1.224h-5.184l-1.224 1.224v8.784l1.224 1.224zM95.01 18.432V24h-3.264v-4.824l-1.44-1.608h-5.232V24H81.81V7.2h10.536l2.568 2.592v5.088l-1.632 1.656zm-9.936-3.552h5.784l.84-.84v-3.264l-.84-.84h-5.784zM98.125 7.2h3.264V24h-3.264zM103.918 21.408l8.616-11.424v-.048h-8.376V7.2h12.288v2.592l-8.616 11.424v.048h8.616V24h-12.528zM118.25 21.24V9.96l2.76-2.76h8.64l2.76 2.76v11.28L129.65 24h-8.64zm9.672-.024 1.224-1.224v-8.784l-1.224-1.224h-5.184l-1.224 1.224v8.784l1.224 1.224zM135.294 7.2h2.928l7.488 11.4h.048V7.2h3.144V24h-2.928l-7.488-11.376h-.048V24h-3.144zM150.469 24.24h11.568v2.688h-11.568zM162.983 20.328l8.64-7.848v-1.704l-.792-.792h-3.888l-.792.792v1.704h-3.264V9.792l2.592-2.592h6.816l2.592 2.592v3.648l-8.52 7.584v.24h8.616V24h-12zM177.148 21.408V9.792L179.74 7.2h7.248l2.592 2.592v2.4h-3.264v-1.368l-.84-.84h-4.224l-.84.84v3.96l1.416-1.368h5.256l2.592 2.592v5.4L187.084 24h-7.344zm8.424-.192.84-.84V17.04l-.84-.84h-3.408l-1.752 1.8v2.376l.84.84z"/></svg>