<svg xmlns="http://www.w3.org/2000/svg" width="322" height="250" fill="none" viewBox="0 0 322 250"><g clip-path="url(#a)"><path stroke="#00151d" stroke-width=".5" d="M-.47.807H-22v20.699M-.47.806v20.7m0-20.7h21.529M-22 21.507H-.47m-21.53 0v20.699m21.53-20.7h21.529m-21.53 0v20.7M21.06.807v20.699m0-20.7h21.53m-21.53 20.7h21.53m-21.53 0v20.699m-21.53 0H-22m21.53 0h21.529m-21.53 0v20.698M-22 42.205v20.698M42.588.807v20.699m0-20.7h21.53m-21.53 20.7h21.53m-21.53 0v20.699m-21.53 0h21.53m-21.53 0v20.698M64.119.807v20.699m0-20.7h21.53m-21.53 20.7h21.53m-21.53 0v20.699m-21.53 0h21.53m-21.53 0v20.698M85.648.807v20.699m0-20.7h21.529m-21.53 20.7h21.53m-21.53 0v20.699m-21.53 0h21.53m-21.53 0v20.698M107.178.807v20.699m0-20.7h21.529m-21.529 20.7h21.529m-21.529 0v20.699m-21.53 0h21.53m-21.53 0v20.698M128.706.807v20.699m0-20.7h21.53m-21.53 20.7h21.53m-21.53 0v20.699m-21.529 0h21.529m-21.529 0v20.698M150.236.807v20.699m0-20.7h21.529m-21.529 20.7h21.529m-21.529 0v20.699m-21.53 0h21.53m-21.53 0v20.698M171.765.807v20.699m0-20.7h21.53m-21.53 20.7h21.53m-21.53 0v20.699m-21.529 0h21.529m-21.529 0v20.698M193.295.807v20.699m0-20.7h21.529m-21.529 20.7h21.529m-21.529 0v20.699m-21.53 0h21.53m-21.53 0v20.698M214.824.807v20.699m0-20.7h21.529m-21.529 20.7h21.529m-21.529 0v20.699m-21.529 0h21.529m-21.529 0v20.698M236.353.807v20.699m0-20.7h21.531m-21.531 20.7h21.531m-21.531 0v20.699m-21.529 0h21.529m-21.529 0v20.698M257.884.807v20.699m0-20.7h21.528m-21.528 20.7h21.528m-21.528 0v20.699m-21.531 0h21.531m-21.531 0v20.698M279.412.807v20.699m0-20.7h21.53m-21.53 20.7h21.53m-21.53 0v20.699m-21.528 0h21.528m-21.528 0v20.698M300.942.807v20.699m0-20.7h21.53m-21.53 20.7h21.53m-21.53 0v20.699m-21.53 0h21.53m-21.53 0v20.698M322.472.807v20.699m0-20.7H344v20.7m-21.528 0H344m-21.528 0v20.699m-21.53 0h21.53m-21.53 0v20.698M344 21.506v20.699m-21.528 0H344m-21.528 0v20.698M344 42.205v20.698m-344.47 0H-22m21.53 0h21.529m-21.53 0v20.7M-22 62.902v20.7m43.059-20.7h21.53m-21.53 0v20.7m21.53-20.7h21.529m-21.53 0v20.7m21.53-20.7h21.53m-21.53 0v20.7m21.53-20.7h21.529m-21.53 0v20.7m21.53-20.7h21.529m-21.529 0v20.7m21.529-20.7h21.53m-21.53 0v20.7m21.53-20.7h21.529m-21.529 0v20.7m21.529-20.7h21.53m-21.53 0v20.7m21.53-20.7h21.529m-21.529 0v20.7m21.529-20.7h21.529m-21.529 0v20.7m21.529-20.7h21.531m-21.531 0v20.7m21.531-20.7h21.528m-21.528 0v20.7m21.528-20.7h21.53m-21.53 0v20.7m21.53-20.7h21.53m-21.53 0v20.7m21.53-20.7H344m-21.528 0v20.7M344 62.902v20.7m-344.47 0H-22m21.53 0h21.529m-21.53 0V104.3M-22 83.602v20.699m43.059-20.699h21.53m-21.53 0v20.699m21.53-20.699h21.529m-21.53 0v20.699m21.53-20.699h21.53m-21.53 0v20.699m21.53-20.699h21.529m-21.53 0v20.699m21.53-20.699h21.529m-21.529 0v20.699m21.529-20.699h21.53m-21.53 0v20.699m21.53-20.699h21.529m-21.529 0v20.699m21.529-20.699h21.53m-21.53 0v20.699m21.53-20.699h21.529m-21.529 0v20.699m21.529-20.699h21.529m-21.529 0v20.699m21.529-20.699h21.531m-21.531 0v20.699m21.531-20.699h21.528m-21.528 0v20.699m21.528-20.699h21.53m-21.53 0v20.699m21.53-20.699h21.53m-21.53 0v20.699m21.53-20.699H344m-21.528 0v20.699M344 83.602v20.699m-344.47 0H-22m21.53 0h21.529m-21.53 0V125M-22 104.301V125m43.059-20.699h21.53m-21.53 0V125m21.53-20.699h21.529m-21.53 0V125m21.53-20.699h21.53m-21.53 0V125m21.53-20.699h21.529m-21.53 0V125m21.53-20.699h21.529m-21.529 0V125m21.529-20.699h21.53m-21.53 0V125m21.53-20.699h21.529m-21.529 0V125m21.529-20.699h21.53m-21.53 0V125m21.53-20.699h21.529m-21.529 0V125m21.529-20.699h21.529m-21.529 0V125m21.529-20.699h21.531m-21.531 0V125m21.531-20.699h21.528m-21.528 0V125m21.528-20.699h21.53m-21.53 0V125m21.53-20.699h21.53m-21.53 0V125m21.53-20.699H344m-21.528 0V125M344 104.301V125M-.47 125H-22m21.53 0h21.529m-21.53 0v20.699M-22 125v20.699M21.059 125h21.53m-21.53 0v20.699M42.589 125h21.529m-21.53 0v20.699M64.118 125h21.53m-21.53 0v20.699M85.648 125h21.529m-21.53 0v20.699M107.177 125h21.529m-21.529 0v20.699M128.706 125h21.53m-21.53 0v20.699M150.236 125h21.529m-21.529 0v20.699M171.765 125h21.53m-21.53 0v20.699M193.295 125h21.529m-21.529 0v20.699M214.824 125h21.529m-21.529 0v20.699M236.353 125h21.531m-21.531 0v20.699M257.884 125h21.528m-21.528 0v20.699M279.412 125h21.53m-21.53 0v20.699M300.942 125h21.53m-21.53 0v20.699M322.472 125H344m-21.528 0v20.699M344 125v20.699m-344.47 0H-22m21.53 0h21.529m-21.53 0v20.699M-22 145.699v20.699m43.059-20.699h21.53m-21.53 0v20.699m21.53-20.699h21.529m-21.53 0v20.699m21.53-20.699h21.53m-21.53 0v20.699m21.53-20.699h21.529m-21.53 0v20.699m21.53-20.699h21.529m-21.529 0v20.699m21.529-20.699h21.53m-21.53 0v20.699m21.53-20.699h21.529m-21.529 0v20.699m21.529-20.699h21.53m-21.53 0v20.699m21.53-20.699h21.529m-21.529 0v20.699m21.529-20.699h21.529m-21.529 0v20.699m21.529-20.699h21.531m-21.531 0v20.699m21.531-20.699h21.528m-21.528 0v20.699m21.528-20.699h21.53m-21.53 0v20.699m21.53-20.699h21.53m-21.53 0v20.699m21.53-20.699H344m-21.528 0v20.699M344 145.699v20.699m-344.47 0H-22m21.53 0h21.529m-21.53 0v20.699M-22 166.398v20.699m43.059-20.699h21.53m-21.53 0v20.699m21.53-20.699h21.529m-21.53 0v20.699m21.53-20.699h21.53m-21.53 0v20.699m21.53-20.699h21.529m-21.53 0v20.699m21.53-20.699h21.529m-21.529 0v20.699m21.529-20.699h21.53m-21.53 0v20.699m21.53-20.699h21.529m-21.529 0v20.699m21.529-20.699h21.53m-21.53 0v20.699m21.53-20.699h21.529m-21.529 0v20.699m21.529-20.699h21.529m-21.529 0v20.699m21.529-20.699h21.531m-21.531 0v20.699m21.531-20.699h21.528m-21.528 0v20.699m21.528-20.699h21.53m-21.53 0v20.699m21.53-20.699h21.53m-21.53 0v20.699m21.53-20.699H344m-21.528 0v20.699M344 166.398v20.699m-344.47 0H-22m21.53 0h21.529m-21.53 0v20.698M-22 187.097v20.698m43.059-20.698h21.53m-21.53 0v20.698m21.53-20.698h21.529m-21.53 0v20.698m21.53-20.698h21.53m-21.53 0v20.698m21.53-20.698h21.529m-21.53 0v20.698m21.53-20.698h21.529m-21.529 0v20.698m21.529-20.698h21.53m-21.53 0v20.698m21.53-20.698h21.529m-21.529 0v20.698m21.529-20.698h21.53m-21.53 0v20.698m21.53-20.698h21.529m-21.529 0v20.698m21.529-20.698h21.529m-21.529 0v20.698m21.529-20.698h21.531m-21.531 0v20.698m21.531-20.698h21.528m-21.528 0v20.698m21.528-20.698h21.53m-21.53 0v20.698m21.53-20.698h21.53m-21.53 0v20.698m21.53-20.698H344m-21.528 0v20.698M344 187.097v20.698m-344.47 0H-22m21.53 0h21.529m-21.53 0v20.699M-22 207.795v20.699m43.059-20.699h21.53m-21.53 0v20.699m21.53-20.699h21.529m-21.53 0v20.699m21.53-20.699h21.53m-21.53 0v20.699m21.53-20.699h21.529m-21.53 0v20.699m21.53-20.699h21.529m-21.529 0v20.699m21.529-20.699h21.53m-21.53 0v20.699m21.53-20.699h21.529m-21.529 0v20.699m21.529-20.699h21.53m-21.53 0v20.699m21.53-20.699h21.529m-21.529 0v20.699m21.529-20.699h21.529m-21.529 0v20.699m21.529-20.699h21.531m-21.531 0v20.699m21.531-20.699h21.528m-21.528 0v20.699m21.528-20.699h21.53m-21.53 0v20.699m21.53-20.699h21.53m-21.53 0v20.699m21.53-20.699H344m-21.528 0v20.699M344 207.795v20.699m-344.47 0H-22m21.53 0h21.529m-21.53 0v20.699M-22 228.494v20.699H-.47m21.529-20.699h21.53m-21.53 0v20.699m21.53-20.699h21.529m-21.53 0v20.699m21.53-20.699h21.53m-21.53 0v20.699m21.53-20.699h21.529m-21.53 0v20.699m21.53-20.699h21.529m-21.529 0v20.699m21.529-20.699h21.53m-21.53 0v20.699m21.53-20.699h21.529m-21.529 0v20.699m21.529-20.699h21.53m-21.53 0v20.699m21.53-20.699h21.529m-21.529 0v20.699m21.529-20.699h21.529m-21.529 0v20.699m21.529-20.699h21.531m-21.531 0v20.699m21.531-20.699h21.528m-21.528 0v20.699m21.528-20.699h21.53m-21.53 0v20.699m21.53-20.699h21.53m-21.53 0v20.699m21.53-20.699H344m-21.528 0v20.699M344 228.494v20.699h-21.528m-322.943 0h21.53m0 0h21.53m0 0h21.529m0 0h21.53m0 0h21.529m0 0h21.529m0 0h21.53m0 0h21.529m0 0h21.53m0 0h21.529m0 0h21.529m0 0h21.531m0 0h21.528m0 0h21.53m0 0h21.53" opacity=".1"/></g><defs><clipPath id="a"><path fill="#fff" d="M0 0h322v250H0z"/></clipPath></defs></svg>